<svg width="250" height="67" viewBox="0 0 1002 170" fill="none" xmlns="http://www.w3.org/2000/svg">
    <g clip-path="url(#clip0_3605_3804)">
        <path d="M825.985 17.8457H803.594V151.514H825.985V17.8457Z" fill="#151221"/>
        <path d="M376.625 129.233L399.016 106.955V62.3991L376.625 40.1211V129.233Z" fill="#151221"/>
        <path d="M264.782 40.1237H376.626L354.234 17.8457H242.391V151.514H354.234L376.626 129.236H264.782V40.1237Z" fill="#151221"/>
        <path d="M415.688 73.5691V151.571H549.923V129.293H438.079V95.8471H494.029V73.5691H438.079V40.1237H549.923V17.8457H415.688V73.5691Z" fill="#151221"/>
        <path d="M594.68 17.8457H572.289V151.514H594.68V17.8457Z" fill="#151221"/>
        <path d="M594.695 17.8457L650.929 151.514H676.778L620.545 17.8457H594.695Z" fill="#151221"/>
        <path d="M919.055 17.8457L975.288 151.514H1001.14L944.904 17.8457H919.055Z" fill="#151221"/>
        <path d="M781.259 17.8457H758.867V151.514H781.259V17.8457Z" fill="#151221"/>
        <path d="M676.758 151.514H702.607L758.841 17.8457H732.991L676.758 151.514Z" fill="#151221"/>
        <path d="M836.992 151.514H862.841L919.075 17.8457H893.226L836.992 151.514Z" fill="#151221"/>
        <path d="M119.713 0.0976562H78.4448L0.5 133.823L21.1341 169.252H176.967L197.601 133.823L119.713 0.0976562ZM99.0789 151.509H31.4512L65.2367 93.518L54.9196 75.8316L88.7618 17.784L122.547 75.7749H143.181L176.967 133.766H109.396L99.0789 151.509Z" fill="#EA3794"/>
    </g>
    <defs>
        <clipPath id="clip0_3605_3804">
            <rect width="1000.64" height="169.098" fill="white" transform="translate(0.5 0.0976562)"/>
        </clipPath>
    </defs>
</svg>
